<?xml version="1.0" standalone="no"?>
<!DOCTYPE svg PUBLIC "-//W3C//DTD SVG 20010904//EN"
 "http://www.w3.org/TR/2001/REC-SVG-20010904/DTD/svg10.dtd">
<svg version="1.0" xmlns="http://www.w3.org/2000/svg"
 width="1008.000000pt" height="1008.000000pt" viewBox="0 0 1008.000000 1008.000000"
 preserveAspectRatio="xMidYMid meet">
<metadata>
Created by potrace 1.11, written by Peter Selinger 2001-2013
</metadata>
<g transform="translate(0.000000,1008.000000) scale(0.100000,-0.100000)"
fill="#000000" stroke="none">
<path d="M3857 9733 c10 -16 42 -63 71 -106 88 -131 182 -334 218 -470 9 -34
16 -96 16 -138 1 -143 -57 -224 -280 -391 -227 -170 -299 -256 -309 -368 -6
-65 20 -166 65 -254 62 -121 249 -371 314 -419 47 -35 109 2 92 55 -4 12 -28
45 -53 72 -154 167 -277 372 -297 495 -14 89 44 166 236 310 170 128 273 230
313 310 29 61 32 73 31 161 0 83 -4 105 -32 176 -44 111 -115 231 -234 398
-102 143 -145 196 -160 196 -5 0 -1 -12 9 -27z"/>
<path d="M5490 9755 c0 -3 37 -47 82 -97 181 -205 322 -432 364 -583 20 -71
17 -152 -6 -203 -28 -62 -119 -153 -240 -240 -307 -220 -370 -287 -390 -408
-23 -141 48 -363 193 -604 69 -115 112 -144 150 -102 26 29 21 49 -38 148
-119 199 -176 348 -182 479 -5 88 -4 91 27 137 33 49 134 137 243 210 34 23
102 73 150 111 355 281 305 500 -242 1060 -86 87 -111 108 -111 92z"/>
<path d="M2490 9256 c0 -5 27 -51 59 -101 166 -259 293 -608 275 -760 -15
-135 -54 -196 -263 -408 -169 -170 -222 -240 -246 -320 -19 -64 -19 -98 0
-170 36 -140 153 -312 345 -510 109 -114 139 -133 173 -116 58 31 50 53 -59
166 -123 125 -201 221 -263 320 -59 96 -81 157 -81 226 0 91 34 142 213 322
88 88 179 188 204 222 134 187 126 348 -31 648 -93 178 -324 519 -326 481z"/>
<path d="M6920 9062 c0 -4 14 -30 31 -57 107 -169 209 -454 209 -584 0 -46
-27 -127 -52 -161 -35 -45 -116 -98 -285 -184 -281 -143 -371 -214 -433 -339
-32 -65 -34 -74 -33 -175 1 -109 20 -214 65 -352 57 -176 209 -492 252 -525
25 -18 29 -18 54 -4 45 25 40 54 -38 208 -142 285 -212 503 -213 666 -1 78 3
97 25 140 48 92 128 154 328 255 271 137 360 203 409 302 75 150 11 339 -255
751 -39 59 -64 83 -64 59z"/>
<path d="M4449 7373 c-389 -274 -917 -676 -1204 -916 -348 -291 -574 -519
-1015 -1022 -389 -444 -586 -780 -651 -1110 -14 -70 -19 -377 -9 -499 l5 -59
-460 -282 c-253 -155 -476 -296 -495 -313 -34 -30 -34 -32 -20 -58 8 -14 31
-35 50 -46 35 -18 815 -402 1145 -563 94 -45 332 -162 530 -260 198 -98 455
-224 570 -280 116 -56 359 -176 540 -265 312 -154 425 -209 1118 -549 158 -77
299 -141 313 -141 14 0 155 68 312 152 158 83 379 199 492 258 113 59 417 218
675 354 259 137 522 275 585 308 63 33 142 75 175 93 33 18 116 62 185 98 69
35 298 156 510 267 212 111 468 246 570 300 102 53 248 130 325 170 164 85
175 94 175 132 0 31 -15 39 -690 364 -277 133 -305 148 -303 159 41 241 48
481 18 650 -53 304 -222 620 -544 1015 -258 318 -609 685 -831 871 -199 166
-618 486 -860 656 -47 33 -168 118 -270 190 -102 71 -297 205 -433 296 -197
132 -256 167 -282 167 -26 0 -72 -28 -226 -137z m477 -164 c892 -602 1539
-1097 1839 -1410 122 -127 468 -521 488 -556 4 -6 -45 -64 -120 -140 l-128
-128 -61 3 -61 4 -5 62 c-6 74 -26 108 -82 141 -59 34 -100 42 -291 61 -144
14 -254 15 -710 11 -596 -6 -604 -7 -687 -70 l-43 -33 -282 4 c-280 4 -283 4
-310 28 -80 69 -290 88 -948 87 -453 0 -499 -2 -608 -22 -64 -11 -135 -30
-156 -40 -71 -37 -105 -99 -98 -181 2 -24 0 -25 -60 -25 l-61 0 -141 135 -141
135 56 65 c150 173 540 594 625 675 198 188 335 305 639 546 379 301 1067 809
1096 809 6 0 118 -73 250 -161z m-2459 -2216 l92 -93 63 0 63 0 38 -158 c48
-196 135 -459 189 -571 117 -241 351 -354 733 -354 213 0 391 38 514 110 61
36 145 116 175 167 62 106 124 319 165 564 12 68 23 128 27 133 11 19 130 93
176 111 27 10 63 18 81 18 44 0 127 -40 208 -101 58 -43 69 -56 74 -87 33
-206 99 -441 156 -558 81 -166 236 -281 449 -332 307 -74 643 -48 827 65 118
73 166 128 219 255 57 134 154 549 154 658 0 51 9 60 57 60 24 0 56 6 71 14
15 8 88 76 162 150 74 75 138 136 142 136 11 0 133 -165 214 -290 77 -119 171
-310 208 -420 115 -350 72 -789 -115 -1163 -71 -143 -137 -241 -245 -362 -210
-236 -375 -315 -809 -389 -431 -73 -941 -106 -1660 -106 -1307 0 -2238 97
-2537 265 -106 59 -285 241 -385 390 -136 204 -229 449 -268 710 -19 129 -19
358 0 469 47 267 191 542 463 879 l55 68 76 -73 c42 -40 117 -115 168 -165z
m1012 -263 c315 -209 617 -410 672 -445 54 -36 99 -69 99 -73 0 -5 -13 -28
-28 -53 -34 -53 -89 -102 -105 -92 -15 8 -464 314 -609 414 -59 41 -236 162
-394 269 -158 107 -292 204 -299 215 -16 25 -27 96 -17 112 10 16 50 32 83 32
18 1 199 -114 598 -379z m2011 233 c113 -80 257 -182 320 -227 63 -45 262
-187 443 -315 180 -128 327 -239 327 -246 0 -14 -49 -84 -73 -103 -9 -8 -22
-10 -29 -6 -7 5 -148 100 -313 213 -462 315 -863 589 -932 635 -60 40 -63 42
-63 84 0 45 21 97 42 105 47 19 74 5 278 -140z m-811 76 l66 0 -61 -23 c-34
-12 -78 -32 -98 -44 -21 -12 -41 -22 -47 -22 -14 0 -11 87 4 94 6 3 25 3 41 1
16 -3 58 -5 95 -6z m361 -55 l0 -55 -42 26 c-38 23 -61 35 -153 75 -13 6 17 9
88 9 l107 1 0 -56z"/>
<path d="M5500 6061 c-120 -38 -341 -171 -369 -223 -14 -24 -14 -28 3 -47 29
-32 59 -26 150 29 99 60 206 105 287 122 55 11 66 10 174 -20 169 -47 505
-175 933 -357 127 -53 187 -74 194 -67 16 16 -39 47 -407 232 -346 174 -583
283 -709 325 -89 30 -176 32 -256 6z"/>
<path d="M4335 5774 c-86 -78 -198 -152 -258 -168 -46 -13 -199 -36 -457 -66
-47 -6 -119 -15 -160 -21 -76 -10 -450 -44 -638 -59 -104 -8 -141 -21 -112
-41 9 -5 70 -7 150 -4 74 2 250 7 390 10 593 13 858 34 927 75 59 34 131 97
211 183 72 78 86 109 60 135 -23 23 -53 11 -113 -44z"/>
<path d="M6632 3477 c-60 -80 -180 -187 -267 -236 -90 -52 -189 -81 -365 -106
-125 -18 -148 -28 -128 -52 23 -28 348 -9 470 28 41 11 82 32 104 51 47 41
111 132 171 244 76 140 80 160 15 71z"/>
<path d="M6435 6510 c10 -11 20 -20 23 -20 3 0 -3 9 -13 20 -10 11 -20 20 -23
20 -3 0 3 -9 13 -20z"/>
<path d="M6501 6459 c19 -19 71 -65 115 -103 189 -163 545 -528 800 -821 384
-441 567 -723 667 -1025 57 -170 70 -279 64 -508 -3 -109 -8 -206 -11 -217 -5
-18 31 -38 331 -181 l338 -161 3 111 c7 243 -36 429 -157 681 -95 198 -271
453 -487 704 -176 206 -386 434 -564 612 -237 237 -300 297 -450 418 -55 45
-110 90 -123 101 -24 21 -58 47 -293 225 -88 67 -184 138 -214 159 l-55 38 36
-33z"/>
<path d="M8979 2984 l-133 -134 -196 -101 c-107 -56 -222 -116 -255 -134 -69
-37 -216 -114 -390 -205 -66 -35 -194 -102 -285 -150 -91 -48 -214 -113 -275
-145 -139 -72 -297 -155 -400 -210 -201 -107 -239 -127 -572 -301 -60 -31
-139 -73 -178 -94 -38 -21 -137 -73 -220 -115 -82 -43 -177 -92 -210 -110
-118 -63 -633 -334 -814 -429 -101 -53 -188 -96 -193 -96 -5 0 -19 7 -32 15
-20 13 -281 142 -981 485 -121 59 -364 178 -540 265 -176 87 -432 213 -570
280 -498 244 -807 396 -1190 585 -432 213 -515 252 -515 243 0 -3 57 -65 128
-136 l127 -129 495 -245 c272 -135 581 -287 685 -338 105 -51 318 -155 475
-232 157 -77 389 -191 515 -253 127 -62 381 -187 565 -278 184 -90 421 -206
525 -257 105 -51 365 -179 579 -284 214 -105 397 -191 408 -191 19 0 155 66
268 130 36 20 130 71 210 112 134 70 393 205 637 334 168 89 250 132 423 222
91 47 192 101 225 119 33 18 116 62 185 97 69 35 152 78 185 96 33 18 141 75
240 127 99 53 218 116 265 141 89 47 179 95 420 220 155 80 221 115 340 179
41 22 131 70 200 105 395 205 371 190 511 328 76 75 129 135 129 146 0 11 -54
73 -132 151 -132 131 -134 132 -262 193 -71 34 -159 76 -196 95 l-67 34 -134
-135z"/>
</g>
</svg>
